<svg xmlns="http://www.w3.org/2000/svg" viewBox="0 0 512 512" role="img" aria-label="raW icon">
  <rect width="512" height="512" fill="#000"/>
  <circle cx="256" cy="256" r="188" fill="none" stroke="#fff" stroke-width="22"/>
  <path d="M256 92v328" stroke="#000" stroke-width="14"/>
  <path d="M170 210c0-52 39-88 86-88v206c-54 0-86-35-86-84z" fill="#fff"/>
  <path d="M256 144c58 0 98 44 98 98 0 20-6 39-18 55 27 33 35 66 44 96-33-5-59-15-82-34-12 6-27 10-42 10z" fill="#fff"/>
  <path d="M148 330c36 52 102 80 182 72" fill="none" stroke="#fff" stroke-width="14" stroke-linecap="round"/>
  <path d="M183 278c-7 0-12-6-12-12v-32c0-6 5-12 12-12s12 6 12 12v32c0 6-5 12-12 12z" fill="#fff"/>
  <path d="M362 286c-14-16-18-35-22-53-7-29-24-47-44-55" fill="none" stroke="#000" stroke-width="10" stroke-linecap="round"/>
</svg>
