<svg width="1200" height="630" viewBox="0 0 1200 630" xmlns="http://www.w3.org/2000/svg" role="img" aria-labelledby="title desc">
  <title id="title">raW — Anonymous polls, avatar identities, real communities</title>
  <desc id="desc">Social preview card for raW on myraw.app.</desc>
  <defs>
    <radialGradient id="goldGlow" cx="68%" cy="26%" r="72%">
      <stop offset="0%" stop-color="#f1c42d" stop-opacity="0.28" />
      <stop offset="46%" stop-color="#f1c42d" stop-opacity="0.08" />
      <stop offset="100%" stop-color="#050505" stop-opacity="0" />
    </radialGradient>
    <linearGradient id="panel" x1="0" y1="0" x2="1" y2="1">
      <stop offset="0%" stop-color="#181818" />
      <stop offset="100%" stop-color="#060606" />
    </linearGradient>
    <filter id="softShadow" x="-20%" y="-20%" width="140%" height="140%">
      <feDropShadow dx="0" dy="24" stdDeviation="32" flood-color="#000000" flood-opacity="0.55" />
    </filter>
  </defs>
  <rect width="1200" height="630" fill="#050505" />
  <rect width="1200" height="630" fill="url(#goldGlow)" />
  <g opacity="0.18">
    <path d="M-80 0 L180 630" stroke="#f1c42d" stroke-width="1" />
    <path d="M10 0 L270 630" stroke="#f1c42d" stroke-width="1" />
    <path d="M100 0 L360 630" stroke="#f1c42d" stroke-width="1" />
    <path d="M190 0 L450 630" stroke="#f1c42d" stroke-width="1" />
    <path d="M280 0 L540 630" stroke="#f1c42d" stroke-width="1" />
    <path d="M370 0 L630 630" stroke="#f1c42d" stroke-width="1" />
    <path d="M460 0 L720 630" stroke="#f1c42d" stroke-width="1" />
    <path d="M550 0 L810 630" stroke="#f1c42d" stroke-width="1" />
    <path d="M640 0 L900 630" stroke="#f1c42d" stroke-width="1" />
    <path d="M730 0 L990 630" stroke="#f1c42d" stroke-width="1" />
    <path d="M820 0 L1080 630" stroke="#f1c42d" stroke-width="1" />
    <path d="M910 0 L1170 630" stroke="#f1c42d" stroke-width="1" />
    <path d="M1000 0 L1260 630" stroke="#f1c42d" stroke-width="1" />
    <path d="M1090 0 L1350 630" stroke="#f1c42d" stroke-width="1" />
  </g>
  <rect x="74" y="72" width="1052" height="486" rx="42" fill="url(#panel)" stroke="#f1c42d" stroke-opacity="0.36" stroke-width="2" filter="url(#softShadow)" />
  <circle cx="978" cy="156" r="86" fill="#f1c42d" opacity="0.12" />
  <circle cx="978" cy="156" r="46" fill="#f1c42d" opacity="0.2" />
  <text x="122" y="178" fill="#f7f0d0" font-family="Arial, Helvetica, sans-serif" font-size="74" font-weight="700" letter-spacing="8">ra<tspan fill="#f1c42d">W</tspan></text>
  <text x="122" y="286" fill="#ffffff" font-family="Arial, Helvetica, sans-serif" font-size="58" font-weight="800">Anonymous polls.</text>
  <text x="122" y="354" fill="#ffffff" font-family="Arial, Helvetica, sans-serif" font-size="58" font-weight="800">Avatar identities.</text>
  <text x="122" y="422" fill="#f1c42d" font-family="Arial, Helvetica, sans-serif" font-size="58" font-weight="800">Real communities.</text>
  <text x="122" y="492" fill="#c7c7c7" font-family="Arial, Helvetica, sans-serif" font-size="28" font-weight="400">Find your people without performing for them.</text>
</svg>
