<svg xmlns="http://www.w3.org/2000/svg" viewBox="0 0 640 360" role="img" aria-labelledby="title desc" style="--accent:#bfdbfe;--dark:#0f172a">
  <title id="title">I&#x27;m feeling like shit honestly...</title>
  <desc id="desc">Stylized community cover illustration for I&#x27;m feeling like shit honestly....</desc>
  <defs>
    <linearGradient id="bg" x1="0" y1="0" x2="1" y2="1">
      <stop offset="0" stop-color="#2563eb"/>
      <stop offset="1" stop-color="#581c87"/>
    </linearGradient>
    <radialGradient id="glow" cx="50%" cy="35%" r="65%">
      <stop offset="0" stop-color="white" stop-opacity=".32"/>
      <stop offset="1" stop-color="white" stop-opacity="0"/>
    </radialGradient>
  </defs>
  <rect width="640" height="360" rx="36" fill="url(#bg)"/>
  <rect width="640" height="360" rx="36" fill="url(#glow)"/>
  <circle cx="92" cy="76" r="74" fill="white" opacity=".10"/>
  <circle cx="548" cy="286" r="112" fill="black" opacity=".14"/>
  <path d="M42 304C139 229 204 228 303 303s180 76 295-2" fill="none" stroke="white" stroke-width="18" stroke-linecap="round" opacity=".13"/>
  <g><path d="M219 173c-4-43 33-78 76-66 24-38 86-25 92 20 40 2 64 46 42 81H224c-33-3-51-26-50-52" fill="white" opacity=".85"/><path d="M251 239l-23 39M319 239l-23 39M387 239l-23 39" stroke="var(--accent)" stroke-width="13" stroke-linecap="round"/><path d="M180 282h280" stroke="white" stroke-width="10" stroke-linecap="round" opacity=".45"/></g>
  <text x="40" y="318" fill="white" font-family="Inter, Arial, sans-serif" font-size="34" font-weight="800" letter-spacing="-.5" opacity=".96">I&#x27;m feeling like shit honestly...</text>
</svg>