<svg xmlns="http://www.w3.org/2000/svg" viewBox="0 0 640 360" role="img" aria-labelledby="title desc" style="--accent:#fef08a;--dark:#0f172a">
  <title id="title">Fucking Bored</title>
  <desc id="desc">Stylized community cover illustration for Fucking Bored.</desc>
  <defs>
    <linearGradient id="bg" x1="0" y1="0" x2="1" y2="1">
      <stop offset="0" stop-color="#64748b"/>
      <stop offset="1" stop-color="#1f2937"/>
    </linearGradient>
    <radialGradient id="glow" cx="50%" cy="35%" r="65%">
      <stop offset="0" stop-color="white" stop-opacity=".32"/>
      <stop offset="1" stop-color="white" stop-opacity="0"/>
    </radialGradient>
  </defs>
  <rect width="640" height="360" rx="36" fill="url(#bg)"/>
  <rect width="640" height="360" rx="36" fill="url(#glow)"/>
  <circle cx="92" cy="76" r="74" fill="white" opacity=".10"/>
  <circle cx="548" cy="286" r="112" fill="black" opacity=".14"/>
  <path d="M42 304C139 229 204 228 303 303s180 76 295-2" fill="none" stroke="white" stroke-width="18" stroke-linecap="round" opacity=".13"/>
  <g><circle cx="320" cy="176" r="88" fill="white" opacity=".85"/><path d="M278 159h-38M400 159h-38M280 226h80" stroke="var(--dark)" stroke-width="14" stroke-linecap="round"/><path d="M166 111c22-20 58-20 80 0M394 284c29 12 61 6 83-18" stroke="var(--accent)" stroke-width="10" stroke-linecap="round" opacity=".8"/></g>
  <text x="40" y="318" fill="white" font-family="Inter, Arial, sans-serif" font-size="34" font-weight="800" letter-spacing="-.5" opacity=".96">Fucking Bored</text>
</svg>