<svg xmlns="http://www.w3.org/2000/svg" viewBox="0 0 640 360" role="img" aria-labelledby="title desc" style="--accent:#a3e635;--dark:#0f172a">
  <title id="title">Gamer Gang</title>
  <desc id="desc">Stylized community cover illustration for Gamer Gang.</desc>
  <defs>
    <linearGradient id="bg" x1="0" y1="0" x2="1" y2="1">
      <stop offset="0" stop-color="#14b8a6"/>
      <stop offset="1" stop-color="#312e81"/>
    </linearGradient>
    <radialGradient id="glow" cx="50%" cy="35%" r="65%">
      <stop offset="0" stop-color="white" stop-opacity=".32"/>
      <stop offset="1" stop-color="white" stop-opacity="0"/>
    </radialGradient>
  </defs>
  <rect width="640" height="360" rx="36" fill="url(#bg)"/>
  <rect width="640" height="360" rx="36" fill="url(#glow)"/>
  <circle cx="92" cy="76" r="74" fill="white" opacity=".10"/>
  <circle cx="548" cy="286" r="112" fill="black" opacity=".14"/>
  <path d="M42 304C139 229 204 228 303 303s180 76 295-2" fill="none" stroke="white" stroke-width="18" stroke-linecap="round" opacity=".13"/>
  <g><path d="M224 153h192c43 0 76 88 43 118-17 15-47-4-72-35H253c-25 31-55 50-72 35-33-30 0-118 43-118z" fill="white" opacity=".86"/><path d="M246 210h56M274 182v56" stroke="var(--dark)" stroke-width="13" stroke-linecap="round"/><circle cx="382" cy="201" r="12" fill="var(--accent)"/><circle cx="421" cy="225" r="12" fill="var(--dark)"/></g>
  <text x="40" y="318" fill="white" font-family="Inter, Arial, sans-serif" font-size="34" font-weight="800" letter-spacing="-.5" opacity=".96">Gamer Gang</text>
</svg>