<svg xmlns="http://www.w3.org/2000/svg" viewBox="0 0 640 360" role="img" aria-labelledby="title desc" style="--accent:#f59e0b;--dark:#0f172a">
  <title id="title">The Mancave</title>
  <desc id="desc">Stylized community cover illustration for The Mancave.</desc>
  <defs>
    <linearGradient id="bg" x1="0" y1="0" x2="1" y2="1">
      <stop offset="0" stop-color="#334155"/>
      <stop offset="1" stop-color="#111827"/>
    </linearGradient>
    <radialGradient id="glow" cx="50%" cy="35%" r="65%">
      <stop offset="0" stop-color="white" stop-opacity=".32"/>
      <stop offset="1" stop-color="white" stop-opacity="0"/>
    </radialGradient>
  </defs>
  <rect width="640" height="360" rx="36" fill="url(#bg)"/>
  <rect width="640" height="360" rx="36" fill="url(#glow)"/>
  <circle cx="92" cy="76" r="74" fill="white" opacity=".10"/>
  <circle cx="548" cy="286" r="112" fill="black" opacity=".14"/>
  <path d="M42 304C139 229 204 228 303 303s180 76 295-2" fill="none" stroke="white" stroke-width="18" stroke-linecap="round" opacity=".13"/>
  <g><path d="M149 283c21-118 82-179 171-179s150 61 171 179H149z" fill="white" opacity=".82"/><path d="M241 283c8-63 35-96 79-96s71 33 79 96H241z" fill="var(--dark)" opacity=".9"/><path d="M173 283h294" stroke="var(--accent)" stroke-width="13" stroke-linecap="round"/><circle cx="320" cy="135" r="18" fill="var(--accent)"/></g>
  <text x="40" y="318" fill="white" font-family="Inter, Arial, sans-serif" font-size="34" font-weight="800" letter-spacing="-.5" opacity=".96">The Mancave</text>
</svg>