<svg xmlns="http://www.w3.org/2000/svg" viewBox="0 0 640 360" role="img" aria-labelledby="title desc" style="--accent:#111827;--dark:#0f172a">
  <title id="title">The Ick</title>
  <desc id="desc">Stylized community cover illustration for The Ick.</desc>
  <defs>
    <linearGradient id="bg" x1="0" y1="0" x2="1" y2="1">
      <stop offset="0" stop-color="#f97316"/>
      <stop offset="1" stop-color="#f43f5e"/>
    </linearGradient>
    <radialGradient id="glow" cx="50%" cy="35%" r="65%">
      <stop offset="0" stop-color="white" stop-opacity=".32"/>
      <stop offset="1" stop-color="white" stop-opacity="0"/>
    </radialGradient>
  </defs>
  <rect width="640" height="360" rx="36" fill="url(#bg)"/>
  <rect width="640" height="360" rx="36" fill="url(#glow)"/>
  <circle cx="92" cy="76" r="74" fill="white" opacity=".10"/>
  <circle cx="548" cy="286" r="112" fill="black" opacity=".14"/>
  <path d="M42 304C139 229 204 228 303 303s180 76 295-2" fill="none" stroke="white" stroke-width="18" stroke-linecap="round" opacity=".13"/>
  <g><path d="M322 82l18 52 55 6-42 35 13 54-46-29-47 29 13-54-42-35 55-6 23-52z" fill="var(--accent)" opacity=".9"/><path d="M190 235c32-35 75-41 120-16 45 25 88 19 122-18" fill="none" stroke="white" stroke-width="16" stroke-linecap="round" opacity=".8"/><circle cx="206" cy="133" r="22" fill="white" opacity=".78"/><circle cx="458" cy="116" r="13" fill="var(--accent)"/></g>
  <text x="40" y="318" fill="white" font-family="Inter, Arial, sans-serif" font-size="34" font-weight="800" letter-spacing="-.5" opacity=".96">The Ick</text>
</svg>