<svg xmlns="http://www.w3.org/2000/svg" viewBox="0 0 640 360" role="img" aria-labelledby="title desc" style="--accent:#facc15;--dark:#0f172a">
  <title id="title">My Weirdest Thoughts</title>
  <desc id="desc">Stylized community cover illustration for My Weirdest Thoughts.</desc>
  <defs>
    <linearGradient id="bg" x1="0" y1="0" x2="1" y2="1">
      <stop offset="0" stop-color="#06b6d4"/>
      <stop offset="1" stop-color="#8b5cf6"/>
    </linearGradient>
    <radialGradient id="glow" cx="50%" cy="35%" r="65%">
      <stop offset="0" stop-color="white" stop-opacity=".32"/>
      <stop offset="1" stop-color="white" stop-opacity="0"/>
    </radialGradient>
  </defs>
  <rect width="640" height="360" rx="36" fill="url(#bg)"/>
  <rect width="640" height="360" rx="36" fill="url(#glow)"/>
  <circle cx="92" cy="76" r="74" fill="white" opacity=".10"/>
  <circle cx="548" cy="286" r="112" fill="black" opacity=".14"/>
  <path d="M42 304C139 229 204 228 303 303s180 76 295-2" fill="none" stroke="white" stroke-width="18" stroke-linecap="round" opacity=".13"/>
  <g><path d="M246 189c-35-9-47-50-19-75 2-37 47-54 77-31 28-25 76-10 83 27 36 8 53 52 28 81 16 38-21 78-60 63-26 29-74 20-89-16-28 3-51-17-48-49z" fill="white" opacity=".86"/><path d="M304 84v154M250 146h108M281 110c31 15 34 51 9 75M362 117c-24 19-24 46-1 69" fill="none" stroke="var(--accent)" stroke-width="10" stroke-linecap="round" opacity=".9"/></g>
  <text x="40" y="318" fill="white" font-family="Inter, Arial, sans-serif" font-size="34" font-weight="800" letter-spacing="-.5" opacity=".96">My Weirdest Thoughts</text>
</svg>